<svg width="60" height="37" viewBox="0 0 60 37" fill="none" xmlns="http://www.w3.org/2000/svg">
<path d="M20.8125 8.10938C20.0938 7.29688 19.3281 6.6875 18.5156 6.28125C17.7031 5.875 16.8281 5.64062 15.8906 5.57812V0.9375C19.3906 1.09375 22.3281 2.32812 24.7031 4.64062L20.8125 8.10938ZM15.8906 31.5938C16.8281 31.5 17.7031 31.25 18.5156 30.8438C19.3594 30.4375 20.125 29.8438 20.8125 29.0625L24.7031 32.4844C23.5156 33.6406 22.1875 34.5312 20.7188 35.1562C19.25 35.7812 17.6406 36.1406 15.8906 36.2344V31.5938ZM0.703125 18.5625C0.703125 15.7812 1.03125 13.3281 1.6875 11.2031C2.375 9.07812 3.3125 7.28125 4.5 5.8125C5.6875 4.34375 7.07812 3.20312 8.67188 2.39062C10.2969 1.57812 12.0625 1.09375 13.9688 0.9375V5.625C12.9375 5.78125 11.9688 6.14062 11.0625 6.70312C10.1562 7.23438 9.35938 8.01562 8.67188 9.04688C7.98438 10.0781 7.4375 11.3906 7.03125 12.9844C6.65625 14.5469 6.45312 16.4062 6.42188 18.5625C6.45312 20.75 6.65625 22.625 7.03125 24.1875C7.4375 25.75 7.98438 27.0625 8.67188 28.125C9.35938 29.1875 10.1562 30 11.0625 30.5625C12 31.125 12.9688 31.4688 13.9688 31.5938V36.1875C12.0625 36.0625 10.2969 35.5938 8.67188 34.7812C7.07812 33.9688 5.6875 32.8281 4.5 31.3594C3.3125 29.8906 2.375 28.0938 1.6875 25.9688C1.03125 23.8125 0.703125 21.3438 0.703125 18.5625Z" fill="#F4613A"/>
<path d="M59.1562 1.45312V36H53.5312V20.4375H40.5V16.5938H53.5312V1.45312H59.1562ZM32.8594 1.45312H38.5781V36H32.8594V1.45312Z" fill="white"/>
</svg>
