<svg width="63" height="54" viewBox="0 0 63 54" fill="none" xmlns="http://www.w3.org/2000/svg">
<g clip-path="url(#clip0)">
<path d="M52.4069 48.5006V53.0691C52.4069 53.5834 51.9209 54 51.3209 54H11.6791C11.079 54 10.593 53.5834 10.593 53.0691V48.5006C10.593 43.7075 15.126 39.8244 20.7193 39.8232C22.696 39.8221 24.4364 38.9505 25.4383 37.6286C26.4448 36.3027 26.3411 35.1498 26.3411 34.2179L26.3615 34.1749C21.4877 32.4457 18.0598 28.3298 18.0598 23.5275V23.1632C16.1245 23.1632 14.6658 21.8524 14.6658 20.3076V15.4715C14.6224 13.7877 14.712 7.84955 19.7161 3.71509C25.5347 -1.09196 34.7555 -0.698647 41.4349 1.87303C41.6521 1.95681 41.6453 2.22329 41.4253 2.30125L39.6836 2.91566C39.4229 3.00759 39.4786 3.3369 39.7582 3.3625L40.604 3.44047C44.6537 3.81167 48.4156 5.69679 50.748 8.834C50.8104 8.91895 50.7928 9.04811 50.7127 9.12142C49.2736 10.4259 48.4699 12.1574 48.4699 13.9576V20.3076C48.4699 21.8844 46.9779 23.1632 45.1384 23.1632H44.9402V23.5275C44.9402 28.3298 41.5122 32.4457 36.6385 34.1749L36.6588 34.2179C36.6588 35.1229 36.5466 36.2916 37.5616 37.6286C38.5635 38.9505 40.304 39.8221 42.2806 39.8232C47.8739 39.8244 52.4069 43.7075 52.4069 48.5006Z" fill="#FFDFBA"/>
<path d="M52.4069 48.5005V53.069C52.4069 53.5831 51.9206 54 51.3209 54H11.6791C11.0793 54 10.593 53.5831 10.593 53.069V48.5005C10.593 43.7075 15.1267 39.8249 20.7186 39.8232C22.6958 39.8226 24.4367 38.95 25.4383 37.6285C28.9347 40.1888 34.0632 40.1903 37.5616 37.6285C38.5631 38.95 40.3041 39.8226 42.2813 39.8232C47.8732 39.8249 52.4069 43.7075 52.4069 48.5005Z" fill="#FE4F60"/>
<path d="M50.7475 8.83457C50.8105 8.9194 50.7929 9.04787 50.7124 9.12095C49.2737 10.4263 48.47 12.1573 48.47 13.9576V20.3076C48.47 21.7491 47.203 23.1632 44.9403 23.1632V15.9753C44.9403 12.8905 42.0228 10.3898 38.4238 10.3898H24.5764C20.9774 10.3898 18.0599 12.8905 18.0599 15.9753V23.1632C16.1247 23.1632 14.6659 21.8524 14.6659 20.3076V15.4715C14.6225 13.7877 14.7121 7.84954 19.7162 3.71508C25.5344 -1.09208 34.7562 -0.698537 41.4344 1.87337C41.6516 1.95704 41.6459 2.22363 41.4256 2.30136L39.6837 2.916C39.4233 3.00793 39.4781 3.33689 39.7581 3.36261L40.6041 3.44046C44.6545 3.81132 48.4155 5.69643 50.7475 8.83457Z" fill="#42434D"/>
<path d="M44.9402 23.5274C44.9402 29.8921 38.9195 35.0476 31.5 35.0476C24.5095 35.0476 18.0598 30.3894 18.0598 23.1632V15.9753C18.0598 12.8905 20.9773 10.3898 24.5763 10.3898H38.4237C42.0227 10.3898 44.9402 12.8905 44.9402 15.9753V23.5274Z" fill="#FFEBD2"/>
<path d="M42.4964 52.0218H39.2382C38.6384 52.0218 38.1521 51.605 38.1521 51.0909C38.1521 50.5768 38.6384 50.16 39.2382 50.16H42.4964C43.0962 50.16 43.5825 50.5768 43.5825 51.0909C43.5825 51.605 43.0963 52.0218 42.4964 52.0218Z" fill="white"/>
<path d="M28.4568 30.9664C30.6666 32.1514 28.9241 35.0574 26.5051 34.2251C21.5317 32.5141 18.0598 28.3599 18.0598 23.5274V15.9753C18.0598 14.8019 18.482 13.713 19.2032 12.8139C20.0875 11.7116 22.1326 12.1986 22.1326 13.648V21.2001C22.1326 25.4486 24.7381 28.9722 28.4568 30.9664Z" fill="#FFF3E4"/>
<path d="M36.8123 36.1286C33.4676 37.3287 29.7919 37.4218 26.1877 36.1286C26.3718 35.474 26.3412 35.0499 26.3412 34.2179L26.3615 34.1749C29.6309 35.3381 33.3628 35.3404 36.6385 34.1749L36.6589 34.2179C36.6589 35.0503 36.6282 35.4742 36.8123 36.1286Z" fill="#FFD6A6"/>
<path d="M26.1893 42.6342C25.6873 42.7696 25.1489 42.8441 24.5716 42.8485C18.9653 42.8908 14.3943 46.6905 14.3943 51.4961V52.3709C14.3943 53.2706 13.5433 54 12.4936 54H11.6791C11.0793 54 10.593 53.5831 10.593 53.069V48.5005C10.593 43.7073 15.1267 39.8249 20.7186 39.8232C22.6958 39.8226 24.4367 38.95 25.4383 37.6285C25.8421 37.9241 26.2743 38.1898 26.7297 38.4224C28.7325 39.4453 28.4133 42.0348 26.1893 42.6342Z" fill="#FF6D7A"/>
<path d="M36.8107 42.6342C37.3128 42.7696 37.8512 42.8441 38.4284 42.8485C44.0348 42.8908 48.6058 46.6905 48.6058 51.4961V52.3709C48.6058 53.2706 49.4567 54 50.5064 54H51.321C51.9208 54 52.4071 53.5831 52.4071 53.069V48.5005C52.4071 43.7073 47.8734 39.8249 42.2814 39.8232C40.3042 39.8226 38.5634 38.95 37.5617 37.6285C37.158 37.9241 36.7257 38.1898 36.2704 38.4224C34.2677 39.4453 34.5867 42.0348 36.8107 42.6342Z" fill="#E84857"/>
<path d="M41.4255 2.30125C39.8292 2.86434 39.6017 2.9885 39.0486 2.91496C30.1327 1.73036 22.3103 4.89235 19.6537 12.3156V12.3168C18.66 13.2966 18.0599 14.5766 18.0599 15.9753V20.3417C18.0599 22.2254 14.6659 22.3566 14.6659 20.3076V15.4715C14.6225 13.7877 14.7121 7.84955 19.7162 3.71509C25.5348 -1.09196 34.7556 -0.698647 41.435 1.87303C41.6522 1.95681 41.6454 2.22328 41.4255 2.30125Z" fill="#4D4E59"/>
</g>
<defs>
<clipPath id="clip0">
<rect width="63" height="54" rx="7" fill="white"/>
</clipPath>
</defs>
</svg>
